# Blender 4.3.2
# www.blender.org
mtllib Turret_Base.mtl
o Cube
v -0.158628 0.000000 1.000000
v -1.000000 0.000000 0.158628
v -1.000000 1.000000 0.158628
v -0.158628 1.000000 1.000000
v -1.000000 0.000000 -0.158628
v -0.158628 0.000000 -1.000000
v -0.158628 1.000000 -1.000000
v -1.000000 1.000000 -0.158628
v 1.000000 0.000000 0.158628
v 0.158628 0.000000 1.000000
v 0.158628 1.000000 1.000000
v 1.000000 1.000000 0.158628
v 0.158628 0.000000 -1.000000
v 1.000000 0.000000 -0.158628
v 1.000000 1.000000 -0.158628
v 0.158628 1.000000 -1.000000
v -1.777133 0.000000 1.150841
v -1.150841 0.000000 1.777133
v -1.150841 0.732228 1.777133
v -1.777133 0.732228 1.150841
v -1.777133 0.732228 -1.150841
v -1.150841 0.732228 -1.777133
v -1.150841 0.000000 -1.777133
v -1.777133 0.000000 -1.150841
v 1.150841 0.732228 -1.777133
v 1.777133 0.732228 -1.150841
v 1.777133 0.000000 -1.150841
v 1.150841 0.000000 -1.777133
v 1.777133 0.732228 1.150841
v 1.150841 0.732228 1.777133
v 1.150841 0.000000 1.777133
v 1.777133 0.000000 1.150841
v 2.220315 -0.020000 -1.880904
v 2.220315 0.620000 -1.880904
v 1.414214 -0.020000 -0.848528
v 1.414214 0.620000 -0.848528
v 1.880904 -0.020000 -2.220315
v 1.880904 0.620000 -2.220315
v 0.848528 -0.020000 -1.414214
v 0.848528 0.620000 -1.414214
v 2.050610 -0.020000 2.474874
v 2.050610 0.316600 2.474874
v 2.474874 -0.020000 2.050610
v 2.474874 0.316600 2.050610
v 0.997659 -0.020000 1.722766
v 0.796255 -0.020000 1.183644
v 0.796255 0.316600 1.183644
v 0.997659 0.316600 1.722766
v 1.183644 -0.020000 0.796255
v 1.722766 -0.020000 0.997659
v 1.722766 0.316600 0.997659
v 1.183644 0.316600 0.796255
v 1.880904 -0.020000 2.220315
v 1.880904 0.620000 2.220315
v 0.848528 -0.020000 1.414214
v 0.848528 0.620000 1.414214
v 2.220315 -0.020000 1.880904
v 2.220315 0.620000 1.880904
v 1.414214 -0.020000 0.848528
v 1.414214 0.620000 0.848528
v -2.474874 -0.020000 2.050610
v -2.474874 0.316600 2.050610
v -2.050610 -0.020000 2.474874
v -2.050610 0.316600 2.474874
v -1.722766 -0.020000 0.997659
v -1.183644 -0.020000 0.796255
v -1.183644 0.316600 0.796255
v -1.722766 0.316600 0.997659
v -0.796255 -0.020000 1.183644
v -0.997659 -0.020000 1.722766
v -0.997659 0.316600 1.722766
v -0.796255 0.316600 1.183644
v -2.220316 -0.020000 1.880904
v -2.220316 0.620000 1.880904
v -1.414214 -0.020000 0.848528
v -1.414214 0.620000 0.848528
v -1.880904 -0.020000 2.220315
v -1.880904 0.620000 2.220315
v -0.848528 -0.020000 1.414214
v -0.848528 0.620000 1.414214
v -2.050609 -0.020000 -2.474874
v -2.050609 0.316600 -2.474874
v -2.474873 -0.020000 -2.050610
v -2.474873 0.316600 -2.050610
v -0.997659 -0.020000 -1.722766
v -0.796255 -0.020000 -1.183644
v -0.796255 0.316600 -1.183644
v -0.997659 0.316600 -1.722766
v -1.183644 -0.020000 -0.796255
v -1.722766 -0.020000 -0.997659
v -1.722766 0.316600 -0.997659
v -1.183644 0.316600 -0.796255
v -1.880904 -0.020000 -2.220316
v -1.880904 0.620000 -2.220316
v -0.848528 -0.020000 -1.414214
v -0.848528 0.620000 -1.414214
v -2.220315 -0.020000 -1.880904
v -2.220315 0.620000 -1.880904
v -1.414214 -0.020000 -0.848528
v -1.414214 0.620000 -0.848528
v 2.474874 -0.020000 -2.050609
v 2.474874 0.316600 -2.050609
v 2.050610 -0.020000 -2.474873
v 2.050610 0.316600 -2.474873
v 1.722766 -0.020000 -0.997659
v 1.183644 -0.020000 -0.796255
v 1.183644 0.316600 -0.796255
v 1.722766 0.316600 -0.997659
v 0.796255 -0.020000 -1.183644
v 0.997659 -0.020000 -1.722766
v 0.997659 0.316600 -1.722766
v 0.796255 0.316600 -1.183644
vn -0.6166 -0.0000 0.7873
vn 0.7873 -0.0000 0.6166
vn -0.0000 1.0000 -0.0000
vn -0.7873 -0.0000 -0.6166
vn 0.6166 -0.0000 -0.7873
vn -0.0000 -1.0000 -0.0000
vn 0.1480 0.9779 0.1480
vn -0.7071 -0.0000 0.7071
vn -0.7071 -0.0000 -0.7071
vn 0.7071 -0.0000 -0.7071
vn 0.7071 -0.0000 0.7071
vn 0.1480 0.9779 -0.1480
vn -0.1480 0.9779 0.1480
vn -0.1480 0.9779 -0.1480
vn -0.0000 -0.0000 1.0000
vn 0.6166 -0.0000 0.7873
vn -1.0000 -0.0000 -0.0000
vn -0.7873 -0.0000 0.6166
vn -0.0000 -0.0000 -1.0000
vn -0.6166 -0.0000 -0.7873
vn 1.0000 -0.0000 -0.0000
vn 0.7873 -0.0000 -0.6166
vn 0.7882 -0.0000 0.6154
vn -0.6154 -0.0000 -0.7882
vn -0.5812 -0.0000 0.8137
vn 0.8137 -0.0000 -0.5812
vn -0.9368 -0.0000 0.3500
vn 0.3500 -0.0000 -0.9368
vn -0.6154 -0.0000 0.7882
vn 0.7882 -0.0000 -0.6154
vn -0.8137 -0.0000 -0.5812
vn 0.5812 -0.0000 0.8137
vn -0.3500 -0.0000 -0.9368
vn 0.9368 -0.0000 0.3500
vn -0.7882 -0.0000 -0.6154
vn 0.6154 -0.0000 0.7882
vn 0.5812 -0.0000 -0.8137
vn -0.8137 -0.0000 0.5812
vn 0.9368 -0.0000 -0.3500
vn -0.3500 -0.0000 0.9368
vn 0.6154 -0.0000 -0.7882
vn -0.7882 -0.0000 0.6154
vn 0.8137 -0.0000 0.5812
vn -0.5812 -0.0000 -0.8137
vn 0.3500 -0.0000 0.9368
vn -0.9368 -0.0000 -0.3500
vt 0.966522 0.566844
vt 0.974451 0.566844
vt 0.974451 0.574711
vt 0.968645 0.574711
vt 0.199290 0.961998
vt 0.207219 0.961998
vt 0.207219 0.969865
vt 0.201413 0.969865
vt 0.479525 0.178584
vt 0.486196 0.185255
vt 0.486196 0.187771
vt 0.479525 0.194442
vt 0.477009 0.194442
vt 0.470338 0.187771
vt 0.470338 0.185255
vt 0.477009 0.178584
vt 0.968977 0.634475
vt 0.976906 0.634475
vt 0.976906 0.642343
vt 0.971100 0.642343
vt 0.940734 0.966831
vt 0.948663 0.966831
vt 0.948663 0.974698
vt 0.942857 0.974698
vt 0.084757 0.880414
vt 0.078085 0.887086
vt 0.071923 0.879218
vt 0.076889 0.874252
vt 0.078085 0.889601
vt 0.084757 0.896272
vt 0.076889 0.902434
vt 0.071923 0.897469
vt 0.093944 0.887086
vt 0.087272 0.880414
vt 0.095140 0.874252
vt 0.100106 0.879218
vt 0.464176 0.177388
vt 0.469142 0.172422
vt 0.093944 0.889601
vt 0.087272 0.896272
vt 0.974451 0.556461
vt 0.968645 0.556461
vt 0.968645 0.551495
vt 0.974451 0.551495
vt 0.971100 0.619126
vt 0.976906 0.619126
vt 0.976906 0.624092
vt 0.971100 0.624092
vt 0.207219 0.974831
vt 0.201413 0.974831
vt 0.974451 0.579677
vt 0.968645 0.579677
vt 0.487392 0.172422
vt 0.492358 0.177388
vt 0.469142 0.200604
vt 0.464176 0.195638
vt 0.100106 0.897469
vt 0.095140 0.902434
vt 0.492358 0.195638
vt 0.487392 0.200604
vt 0.966522 0.564328
vt 0.974451 0.564328
vt 0.968977 0.631960
vt 0.976906 0.631960
vt 0.940734 0.964315
vt 0.948663 0.964315
vt 0.942857 0.956448
vt 0.948663 0.956448
vt 0.199290 0.959482
vt 0.207219 0.959482
vt 0.201413 0.951615
vt 0.207219 0.951615
vt 0.210924 0.467481
vt 0.205849 0.467481
vt 0.205849 0.459295
vt 0.210924 0.459295
vt 0.378151 0.867532
vt 0.378151 0.862458
vt 0.382636 0.862458
vt 0.382636 0.867532
vt 0.210924 0.358501
vt 0.205849 0.358501
vt 0.205849 0.350315
vt 0.210924 0.350315
vt 0.205849 0.347624
vt 0.210924 0.347624
vt 0.323062 0.680880
vt 0.329405 0.680880
vt 0.328136 0.691188
vt 0.324330 0.691188
vt 0.323062 0.707810
vt 0.329405 0.707810
vt 0.328136 0.718118
vt 0.324330 0.718118
vt 0.208302 0.856981
vt 0.205633 0.856981
vt 0.205633 0.853910
vt 0.208302 0.853910
vt 0.981546 0.687799
vt 0.979652 0.691951
vt 0.975308 0.691951
vt 0.973415 0.687799
vt 0.975102 0.677679
vt 0.979859 0.677679
vt 0.205849 0.410973
vt 0.208518 0.410973
vt 0.208518 0.414337
vt 0.205849 0.414337
vt 0.326528 0.524565
vt 0.323859 0.524565
vt 0.323859 0.516216
vt 0.326528 0.516216
vt 0.205849 0.402624
vt 0.208518 0.402624
vt 0.378151 0.905852
vt 0.380820 0.905852
vt 0.380820 0.910127
vt 0.378151 0.910127
vt 0.205633 0.849635
vt 0.208302 0.849635
vt 0.983184 0.303789
vt 0.981290 0.307941
vt 0.976946 0.307941
vt 0.975053 0.303789
vt 0.976739 0.293669
vt 0.981497 0.293669
vt 0.328933 0.474785
vt 0.323859 0.474785
vt 0.323859 0.466599
vt 0.328933 0.466599
vt 0.259619 0.870289
vt 0.259619 0.865214
vt 0.264104 0.865214
vt 0.264104 0.870289
vt 0.328933 0.365805
vt 0.323859 0.365805
vt 0.323859 0.357619
vt 0.328933 0.357619
vt 0.323859 0.354928
vt 0.328933 0.354928
vt 0.771716 0.990167
vt 0.765372 0.990167
vt 0.766641 0.979860
vt 0.770447 0.979860
vt 0.794682 0.990167
vt 0.788338 0.990167
vt 0.789607 0.979859
vt 0.793413 0.979859
vt 0.326528 0.623450
vt 0.323859 0.623450
vt 0.323859 0.620378
vt 0.326528 0.620378
vt 0.111348 0.980397
vt 0.109454 0.984549
vt 0.105110 0.984549
vt 0.103217 0.980397
vt 0.104904 0.970276
vt 0.109661 0.970276
vt 0.326528 0.413292
vt 0.323859 0.413292
vt 0.323859 0.409928
vt 0.326528 0.409928
vt 0.326528 0.549537
vt 0.323859 0.549537
vt 0.323859 0.541188
vt 0.326528 0.541188
vt 0.326528 0.421641
vt 0.323859 0.421641
vt 0.259619 0.908609
vt 0.262288 0.908609
vt 0.262288 0.912883
vt 0.259619 0.912883
vt 0.323859 0.616104
vt 0.326528 0.616104
vt 0.984690 0.513070
vt 0.982796 0.517222
vt 0.978453 0.517222
vt 0.976559 0.513070
vt 0.978246 0.502950
vt 0.983003 0.502950
vt 0.210924 0.492290
vt 0.205849 0.492290
vt 0.205849 0.484104
vt 0.210924 0.484104
vt 0.378151 0.889230
vt 0.378151 0.884155
vt 0.382636 0.884155
vt 0.382636 0.889230
vt 0.210924 0.386001
vt 0.205849 0.386001
vt 0.205849 0.377815
vt 0.210924 0.377815
vt 0.205849 0.375124
vt 0.210924 0.375124
vt 0.549054 0.989997
vt 0.542711 0.989997
vt 0.543979 0.979689
vt 0.547785 0.979689
vt 0.329405 0.745049
vt 0.323062 0.745049
vt 0.324330 0.734741
vt 0.328136 0.734741
vt 0.326528 0.647419
vt 0.323859 0.647419
vt 0.323859 0.644348
vt 0.326528 0.644348
vt 0.639512 0.976508
vt 0.641406 0.972356
vt 0.645750 0.972356
vt 0.647643 0.976508
vt 0.645956 0.986629
vt 0.641199 0.986629
vt 0.208518 0.434323
vt 0.205849 0.434323
vt 0.205849 0.430959
vt 0.208518 0.430959
vt 0.323859 0.591132
vt 0.326528 0.591132
vt 0.326528 0.599481
vt 0.323859 0.599481
vt 0.208518 0.442672
vt 0.205849 0.442672
vt 0.008311 0.925429
vt 0.010980 0.925429
vt 0.010980 0.929704
vt 0.008311 0.929704
vt 0.323859 0.640073
vt 0.326528 0.640073
vt 0.678336 0.977602
vt 0.680230 0.973450
vt 0.684574 0.973450
vt 0.686467 0.977602
vt 0.684781 0.987722
vt 0.680023 0.987722
vt 0.328933 0.499594
vt 0.323859 0.499594
vt 0.323859 0.491408
vt 0.328933 0.491408
vt 0.259619 0.891986
vt 0.259619 0.886911
vt 0.264104 0.886911
vt 0.264104 0.891986
vt 0.328933 0.393305
vt 0.323859 0.393305
vt 0.323859 0.385119
vt 0.328933 0.385119
vt 0.323859 0.382428
vt 0.328933 0.382428
vt 0.955869 0.475101
vt 0.962212 0.475101
vt 0.960944 0.485409
vt 0.957138 0.485409
vt 0.978835 0.475101
vt 0.985179 0.475101
vt 0.983910 0.485409
vt 0.980104 0.485409
vt 0.208302 0.833012
vt 0.205633 0.833012
vt 0.205633 0.829940
vt 0.208302 0.829940
vt 0.880461 0.978454
vt 0.882355 0.974302
vt 0.886699 0.974302
vt 0.888592 0.978454
vt 0.886906 0.988574
vt 0.882148 0.988574
vt 0.323859 0.446612
vt 0.326528 0.446612
vt 0.326528 0.449976
vt 0.323859 0.449976
vt 0.323859 0.566160
vt 0.326528 0.566160
vt 0.326528 0.574509
vt 0.323859 0.574509
vt 0.323859 0.438263
vt 0.326528 0.438263
vt 0.372251 0.930078
vt 0.374920 0.930078
vt 0.374920 0.934353
vt 0.372251 0.934353
vt 0.205633 0.825666
vt 0.208302 0.825666
vt 0.855708 0.978454
vt 0.857601 0.974302
vt 0.861945 0.974302
vt 0.863838 0.978454
vt 0.862152 0.988574
vt 0.857394 0.988574
s 0
usemtl Material
f 11/1/1 10/2/1 31/3/1 30/4/1
f 15/5/2 14/6/2 27/7/2 26/8/2
f 15/9/3 16/10/3 7/11/3 8/12/3 3/13/3 4/14/3 11/15/3 12/16/3
f 3/17/4 2/18/4 17/19/4 20/20/4
f 7/21/5 6/22/5 23/23/5 22/24/5
f 2/25/6 1/26/6 18/27/6 17/28/6
f 10/29/6 9/30/6 32/31/6 31/32/6
f 6/33/6 5/34/6 24/35/6 23/36/6
f 12/16/7 11/15/7 30/37/7 29/38/7
f 5/34/6 6/33/6 13/39/6 14/40/6 9/30/6 10/29/6 1/26/6 2/25/6
f 18/41/8 19/42/8 20/43/8 17/44/8
f 22/45/9 23/46/9 24/47/9 21/48/9
f 26/8/10 27/7/10 28/49/10 25/50/10
f 30/4/11 31/3/11 32/51/11 29/52/11
f 16/10/12 15/9/12 26/53/12 25/54/12
f 4/14/13 3/13/13 20/55/13 19/56/13
f 14/40/6 13/39/6 28/57/6 27/58/6
f 8/12/14 7/11/14 22/59/14 21/60/14
f 10/2/15 11/1/15 4/61/15 1/62/15
f 1/62/16 4/61/16 19/42/16 18/41/16
f 2/18/17 3/17/17 8/63/17 5/64/17
f 5/64/18 8/63/18 21/48/18 24/47/18
f 6/22/19 7/21/19 16/65/19 13/66/19
f 13/66/20 16/65/20 25/67/20 28/68/20
f 14/6/21 15/5/21 12/69/21 9/70/21
f 9/70/22 12/69/22 29/71/22 32/72/22
f 33/73/23 34/74/23 36/75/23 35/76/23
f 35/77/8 36/78/8 40/79/8 39/80/8
f 39/81/24 40/82/24 38/83/24 37/84/24
f 37/84/10 38/83/10 34/85/10 33/86/10
f 35/87/6 39/88/6 37/89/6 33/90/6
f 40/91/3 36/92/3 34/93/3 38/94/3
f 46/95/9 47/96/9 52/97/9 49/98/9
f 51/99/3 52/100/3 47/101/3 48/102/3 42/103/3 44/104/3
f 43/105/11 44/106/11 42/107/11 41/108/11
f 41/109/25 42/110/25 48/111/25 45/112/25
f 50/113/26 51/114/26 44/106/26 43/105/26
f 47/115/27 46/116/27 45/117/27 48/118/27
f 51/119/28 50/120/28 49/98/28 52/97/28
f 45/121/6 46/122/6 49/123/6 50/124/6 43/125/6 41/126/6
f 53/127/29 54/128/29 56/129/29 55/130/29
f 55/131/9 56/132/9 60/133/9 59/134/9
f 59/135/30 60/136/30 58/137/30 57/138/30
f 57/138/11 58/137/11 54/139/11 53/140/11
f 55/141/6 59/142/6 57/143/6 53/144/6
f 60/145/3 56/146/3 54/147/3 58/148/3
f 66/149/10 67/150/10 72/151/10 69/152/10
f 71/153/3 72/154/3 67/155/3 68/156/3 62/157/3 64/158/3
f 63/159/8 64/160/8 62/161/8 61/162/8
f 61/163/31 62/164/31 68/165/31 65/166/31
f 70/167/32 71/168/32 64/160/32 63/159/32
f 67/169/33 66/170/33 65/171/33 68/172/33
f 71/173/34 70/174/34 69/152/34 72/151/34
f 65/175/6 66/176/6 69/177/6 70/178/6 63/179/6 61/180/6
f 73/181/35 74/182/35 76/183/35 75/184/35
f 75/185/10 76/186/10 80/187/10 79/188/10
f 79/189/36 80/190/36 78/191/36 77/192/36
f 77/192/8 78/191/8 74/193/8 73/194/8
f 75/195/6 79/196/6 77/197/6 73/198/6
f 80/199/3 76/200/3 74/201/3 78/202/3
f 86/203/11 87/204/11 92/205/11 89/206/11
f 91/207/3 92/208/3 87/209/3 88/210/3 82/211/3 84/212/3
f 83/213/9 84/214/9 82/215/9 81/216/9
f 81/217/37 82/218/37 88/219/37 85/220/37
f 90/221/38 91/222/38 84/214/38 83/213/38
f 87/223/39 86/224/39 85/225/39 88/226/39
f 91/227/40 90/228/40 89/206/40 92/205/40
f 85/229/6 86/230/6 89/231/6 90/232/6 83/233/6 81/234/6
f 93/235/41 94/236/41 96/237/41 95/238/41
f 95/239/11 96/240/11 100/241/11 99/242/11
f 99/243/42 100/244/42 98/245/42 97/246/42
f 97/246/9 98/245/9 94/247/9 93/248/9
f 95/249/6 99/250/6 97/251/6 93/252/6
f 100/253/3 96/254/3 94/255/3 98/256/3
f 106/257/8 107/258/8 112/259/8 109/260/8
f 111/261/3 112/262/3 107/263/3 108/264/3 102/265/3 104/266/3
f 103/267/10 104/268/10 102/269/10 101/270/10
f 101/271/43 102/272/43 108/273/43 105/274/43
f 110/275/44 111/276/44 104/268/44 103/267/44
f 107/277/45 106/278/45 105/279/45 108/280/45
f 111/281/46 110/282/46 109/260/46 112/259/46
f 105/283/6 106/284/6 109/285/6 110/286/6 103/287/6 101/288/6
