# Blender 4.3.2
# www.blender.org
mtllib Player_Legs.mtl
o Root.001
v -0.200000 -0.991576 0.266182
v -0.200000 -0.582000 0.552970
v -0.200000 -0.008424 -0.266182
v 0.200000 -0.991576 0.266182
v 0.200000 -0.582000 0.552970
v 0.200000 -0.008424 -0.266182
v -0.200000 -0.315567 -0.481246
v -0.200000 -0.561448 -0.348105
v 0.200000 -0.561448 -0.348105
v 0.200000 -0.315567 -0.481246
v 0.325329 -1.057620 0.252818
v 0.325329 -0.516701 0.397756
v 0.126332 -0.916113 -0.275291
v 0.126332 -0.375195 -0.130353
v 0.673668 -1.024805 0.130353
v 0.673668 -0.483887 0.275291
v 0.474671 -0.883299 -0.397756
v 0.474671 -0.342381 -0.252818
v -0.325329 -1.057620 0.252818
v -0.325329 -0.516701 0.397756
v -0.126332 -0.916113 -0.275291
v -0.126332 -0.375195 -0.130353
v -0.673668 -1.024805 0.130353
v -0.673668 -0.483887 0.275291
v -0.474671 -0.883299 -0.397756
v -0.474671 -0.342381 -0.252818
v 0.430444 -1.438977 0.023802
v 0.448737 -0.658049 0.276979
v 0.329119 -1.353494 -0.232550
v 0.347413 -0.572566 0.020627
v 0.739803 -1.409742 -0.088726
v 0.758096 -0.628814 0.164451
v 0.638478 -1.324259 -0.345077
v 0.656772 -0.543332 -0.091900
v -0.430444 -1.438977 0.023802
v -0.448737 -0.658049 0.276979
v -0.329119 -1.353494 -0.232550
v -0.347413 -0.572566 0.020627
v -0.739803 -1.409742 -0.088726
v -0.758096 -0.628814 0.164451
v -0.638478 -1.324259 -0.345077
v -0.656772 -0.543332 -0.091900
v 0.485916 -1.720269 0.151755
v 0.498721 -1.173620 0.328979
v 0.232605 -1.506562 -0.489123
v 0.245410 -0.959913 -0.311899
v 0.826210 -1.688111 0.027975
v 0.839016 -1.141462 0.205199
v 0.572900 -1.474404 -0.612903
v 0.585705 -0.927755 -0.435679
v -0.485916 -1.720269 0.151755
v -0.498721 -1.173620 0.328979
v -0.232605 -1.506562 -0.489123
v -0.245410 -0.959913 -0.311899
v -0.826211 -1.688111 0.027975
v -0.839016 -1.141462 0.205199
v -0.572900 -1.474404 -0.612903
v -0.585705 -0.927755 -0.435679
v 0.372710 -2.279397 0.008026
v 0.379830 -1.480992 -0.183752
v 0.301270 -2.392162 -0.464084
v 0.308389 -1.593757 -0.655863
v 0.634270 -2.290594 -0.028879
v 0.641389 -1.492189 -0.220658
v 0.562829 -2.403359 -0.500989
v 0.569949 -1.604954 -0.692768
v -0.372710 -2.279397 0.008026
v -0.379830 -1.480992 -0.183752
v -0.301270 -2.392162 -0.464084
v -0.308390 -1.593757 -0.655863
v -0.634270 -2.290594 -0.028879
v -0.641390 -1.492189 -0.220658
v -0.562829 -2.403359 -0.500989
v -0.569949 -1.604954 -0.692768
v 0.368837 -2.361556 -0.231252
v 0.379019 -1.219837 -0.505496
v 0.340261 -2.406662 -0.420096
v 0.350442 -1.264943 -0.694340
v 0.565007 -2.369953 -0.258931
v 0.575188 -1.228235 -0.533174
v 0.536431 -2.415059 -0.447775
v 0.546612 -1.273341 -0.722019
v -0.368838 -2.361556 -0.231252
v -0.379019 -1.219837 -0.505496
v -0.340261 -2.406662 -0.420096
v -0.350443 -1.264943 -0.694340
v -0.565007 -2.369954 -0.258931
v -0.575188 -1.228235 -0.533174
v -0.536431 -2.415060 -0.447775
v -0.546612 -1.273341 -0.722019
vn -0.0000 0.5736 -0.8192
vn 1.0000 -0.0000 -0.0000
vn -0.0000 -0.5736 0.8192
vn -1.0000 -0.0000 -0.0000
vn -0.0000 0.8192 0.5736
vn -0.0000 -0.4762 -0.8794
vn -0.0000 -0.8192 -0.5736
vn -0.9397 -0.0885 0.3304
vn -0.3420 0.2432 -0.9077
vn 0.9397 0.0885 -0.3304
vn 0.3420 -0.2432 0.9077
vn -0.0000 -0.9659 -0.2588
vn -0.0000 0.9659 0.2588
vn 0.9397 -0.0885 0.3304
vn 0.3420 0.2432 -0.9077
vn -0.9397 0.0885 -0.3304
vn -0.3420 -0.2432 0.9077
vn -0.9361 -0.0885 0.3405
vn -0.3511 0.2962 -0.8883
vn 0.9361 0.0885 -0.3405
vn 0.3511 -0.2962 0.8883
vn -0.0223 -0.9510 -0.3083
vn 0.0223 0.9510 0.3083
vn 0.9361 -0.0885 0.3405
vn 0.3511 0.2962 -0.8883
vn -0.9361 0.0885 -0.3405
vn -0.3511 -0.2962 0.8883
vn 0.0223 -0.9510 -0.3083
vn -0.0223 0.9510 0.3083
vn -0.9893 0.0424 0.1396
vn -0.1456 -0.2298 -0.9623
vn 0.9893 -0.0424 -0.1396
vn 0.1456 0.2298 0.9623
vn -0.0087 -0.9723 0.2335
vn 0.0087 0.9723 -0.2336
vn 0.9893 0.0424 0.1396
vn 0.1456 -0.2298 -0.9623
vn -0.9893 -0.0424 -0.1396
vn -0.1456 0.2298 0.9623
vn 0.0087 -0.9723 0.2336
vn -0.0087 0.9723 -0.2336
vn 0.0087 0.9723 -0.2335
vt 0.510742 0.325469
vt 0.510742 0.297439
vt 0.544888 0.297439
vt 0.544888 0.325469
vt 0.377018 0.480889
vt 0.387691 0.459542
vt 0.419696 0.459547
vt 0.419696 0.544908
vt 0.377018 0.544902
vt 0.568064 0.133126
vt 0.568064 0.097595
vt 0.602211 0.097595
vt 0.602211 0.133126
vt 0.146865 0.546350
vt 0.104187 0.546357
vt 0.104187 0.460996
vt 0.136191 0.460991
vt 0.146865 0.482338
vt 0.637436 0.501114
vt 0.671582 0.501114
vt 0.671582 0.572265
vt 0.637436 0.572265
vt 0.544888 0.345125
vt 0.510742 0.345125
vt 0.523666 0.749047
vt 0.557812 0.749047
vt 0.557812 0.802883
vt 0.523666 0.802883
vt 0.009119 0.716973
vt 0.009119 0.669176
vt 0.055712 0.669474
vt 0.055712 0.717272
vt 0.053173 0.921811
vt 0.053173 0.874579
vt 0.082909 0.872909
vt 0.082909 0.920142
vt 0.199254 0.716660
vt 0.199254 0.668863
vt 0.246005 0.669154
vt 0.246005 0.716952
vt 0.884845 0.201840
vt 0.884845 0.155385
vt 0.914581 0.157940
vt 0.914581 0.204394
vt 0.148408 0.839410
vt 0.179958 0.839917
vt 0.179958 0.888504
vt 0.148408 0.887997
vt 0.868606 0.076952
vt 0.900144 0.076380
vt 0.900144 0.124831
vt 0.868606 0.125403
vt 0.570259 0.730510
vt 0.523666 0.730809
vt 0.523666 0.683011
vt 0.570259 0.682712
vt 0.406754 0.921417
vt 0.377018 0.919748
vt 0.377018 0.872515
vt 0.406754 0.874185
vt 0.423769 0.716450
vt 0.377018 0.716741
vt 0.377018 0.668944
vt 0.423769 0.668653
vt 0.853367 0.908253
vt 0.823631 0.910807
vt 0.823631 0.864353
vt 0.853367 0.861798
vt 0.718383 0.087532
vt 0.718383 0.136119
vt 0.686833 0.136626
vt 0.686833 0.088038
vt 0.900144 0.009691
vt 0.900144 0.058142
vt 0.868606 0.057570
vt 0.868606 0.009119
vt 0.825117 0.534728
vt 0.825117 0.464631
vt 0.848137 0.464585
vt 0.848137 0.534682
vt 0.655804 0.782243
vt 0.655804 0.713635
vt 0.682172 0.711578
vt 0.682172 0.780187
vt 0.248432 0.805233
vt 0.248432 0.735190
vt 0.271547 0.735525
vt 0.271547 0.805569
vt 0.459379 0.801999
vt 0.459379 0.734826
vt 0.485728 0.737708
vt 0.485728 0.804881
vt 0.377018 0.968273
vt 0.377018 0.940140
vt 0.400794 0.939656
vt 0.400794 0.967788
vt 0.076864 0.940589
vt 0.076864 0.968711
vt 0.053173 0.968172
vt 0.053173 0.940050
vt 0.853912 0.668444
vt 0.830893 0.668398
vt 0.830893 0.598302
vt 0.853912 0.598347
vt 0.130555 0.790000
vt 0.104187 0.787944
vt 0.104187 0.719335
vt 0.130555 0.721392
vt 0.271308 0.632046
vt 0.248193 0.632382
vt 0.248193 0.562338
vt 0.271308 0.562003
vt 0.796914 0.753855
vt 0.770565 0.756737
vt 0.770565 0.689564
vt 0.796914 0.686682
vt 0.376447 0.132804
vt 0.352670 0.132319
vt 0.352670 0.104187
vt 0.376447 0.104671
vt 0.655804 0.943890
vt 0.679495 0.943351
vt 0.679495 0.971473
vt 0.655804 0.972013
vt 0.637565 0.665619
vt 0.588498 0.665522
vt 0.588498 0.607974
vt 0.637565 0.608071
vt 0.874820 0.294372
vt 0.874820 0.246347
vt 0.903826 0.244084
vt 0.903826 0.292110
vt 0.104187 0.565307
vt 0.153212 0.564595
vt 0.153212 0.622389
vt 0.104187 0.623101
vt 0.711445 0.906378
vt 0.711445 0.859357
vt 0.740428 0.862528
vt 0.740428 0.909549
vt 0.377018 0.734980
vt 0.407957 0.735610
vt 0.407957 0.795063
vt 0.377018 0.794433
vt 0.291470 0.747466
vt 0.322396 0.746763
vt 0.322396 0.806006
vt 0.291470 0.806710
vt 0.009119 0.650937
vt 0.009119 0.593389
vt 0.058187 0.593292
vt 0.058187 0.650840
vt 0.900611 0.904330
vt 0.871606 0.902068
vt 0.871606 0.854042
vt 0.900611 0.856304
vt 0.508404 0.581346
vt 0.508404 0.639140
vt 0.459379 0.638428
vt 0.459379 0.580635
vt 0.905031 0.410385
vt 0.876047 0.413555
vt 0.876047 0.366534
vt 0.905031 0.363364
vt 0.230194 0.735190
vt 0.230194 0.794643
vt 0.199254 0.795274
vt 0.199254 0.735820
vt 0.084099 0.736214
vt 0.084099 0.795457
vt 0.053173 0.794753
vt 0.053173 0.735510
vt 0.568211 0.225480
vt 0.568211 0.155385
vt 0.609672 0.155438
vt 0.609672 0.225533
vt 0.199254 0.879534
vt 0.199254 0.813512
vt 0.221593 0.814593
vt 0.221593 0.880615
vt 0.568064 0.079193
vt 0.568064 0.009119
vt 0.609474 0.009283
vt 0.609474 0.079357
vt 0.834245 0.312669
vt 0.834245 0.244914
vt 0.856582 0.244084
vt 0.856582 0.311839
vt 0.107564 0.904441
vt 0.130105 0.904740
vt 0.130105 0.945098
vt 0.107564 0.944799
vt 0.009119 0.902141
vt 0.031663 0.901869
vt 0.031663 0.942374
vt 0.009119 0.942647
vt 0.609672 0.313866
vt 0.568211 0.313918
vt 0.568211 0.243823
vt 0.609672 0.243771
vt 0.883480 0.752705
vt 0.861141 0.753786
vt 0.861141 0.687763
vt 0.883480 0.686682
vt 0.605547 0.433437
vt 0.564137 0.433601
vt 0.564137 0.363527
vt 0.605547 0.363364
vt 0.853367 0.843560
vt 0.831031 0.842731
vt 0.831030 0.774976
vt 0.853367 0.775805
vt 0.793107 0.912710
vt 0.793107 0.953068
vt 0.770565 0.953367
vt 0.770565 0.913009
vt 0.850155 0.094026
vt 0.850155 0.134532
vt 0.827611 0.134259
vt 0.827611 0.093754
vt 0.069279 0.490266
vt 0.069279 0.390031
vt 0.085863 0.390052
vt 0.085863 0.490287
vt 0.735572 0.781094
vt 0.735572 0.686682
vt 0.752327 0.687493
vt 0.752327 0.781905
vt 0.163394 0.741544
vt 0.163394 0.641339
vt 0.179958 0.641405
vt 0.179958 0.741610
vt 0.746278 0.562097
vt 0.746278 0.465207
vt 0.763031 0.464585
vt 0.763031 0.561475
vt 0.781016 0.442805
vt 0.781016 0.425897
vt 0.797158 0.425683
vt 0.797158 0.442591
vt 0.266968 0.112111
vt 0.266968 0.129020
vt 0.250767 0.128825
vt 0.250767 0.111915
vt 0.717334 0.708210
vt 0.700750 0.708231
vt 0.700750 0.607995
vt 0.717334 0.607974
vt 0.769608 0.338496
vt 0.752853 0.339307
vt 0.752853 0.244895
vt 0.769608 0.244084
vt 0.734615 0.344290
vt 0.718051 0.344355
vt 0.718051 0.244150
vt 0.734615 0.244084
vt 0.760325 0.106631
vt 0.743573 0.106009
vt 0.743573 0.009119
vt 0.760325 0.009741
vt 0.624406 0.482865
vt 0.608265 0.482651
vt 0.608265 0.465743
vt 0.624406 0.465957
vt 0.216327 0.112111
vt 0.232528 0.111915
vt 0.232528 0.128825
vt 0.216327 0.129020
s 0
usemtl PlayerMat
f 7/1/1 3/2/1 6/3/1 10/4/1
f 9/5/2 10/6/2 6/7/2 5/8/2 4/9/2
f 4/10/3 5/11/3 2/12/3 1/13/3
f 1/14/4 2/15/4 3/16/4 7/17/4 8/18/4
f 6/19/5 3/20/5 2/21/5 5/22/5
f 9/23/6 8/24/6 7/1/6 10/4/6
f 8/25/7 9/26/7 4/27/7 1/28/7
f 11/29/8 12/30/8 14/31/8 13/32/8
f 13/33/9 14/34/9 18/35/9 17/36/9
f 17/37/10 18/38/10 16/39/10 15/40/10
f 15/41/11 16/42/11 12/43/11 11/44/11
f 13/45/12 17/46/12 15/47/12 11/48/12
f 18/49/13 14/50/13 12/51/13 16/52/13
f 19/53/14 21/54/14 22/55/14 20/56/14
f 21/57/15 25/58/15 26/59/15 22/60/15
f 25/61/16 23/62/16 24/63/16 26/64/16
f 23/65/17 19/66/17 20/67/17 24/68/17
f 21/69/12 19/70/12 23/71/12 25/72/12
f 26/73/13 24/74/13 20/75/13 22/76/13
f 27/77/18 28/78/18 30/79/18 29/80/18
f 29/81/19 30/82/19 34/83/19 33/84/19
f 33/85/20 34/86/20 32/87/20 31/88/20
f 31/89/21 32/90/21 28/91/21 27/92/21
f 29/93/22 33/94/22 31/95/22 27/96/22
f 34/97/23 30/98/23 28/99/23 32/100/23
f 35/101/24 37/102/24 38/103/24 36/104/24
f 37/105/25 41/106/25 42/107/25 38/108/25
f 41/109/26 39/110/26 40/111/26 42/112/26
f 39/113/27 35/114/27 36/115/27 40/116/27
f 37/117/28 35/118/28 39/119/28 41/120/28
f 42/121/29 40/122/29 36/123/29 38/124/29
f 43/125/18 44/126/18 46/127/18 45/128/18
f 45/129/19 46/130/19 50/131/19 49/132/19
f 49/133/20 50/134/20 48/135/20 47/136/20
f 47/137/21 48/138/21 44/139/21 43/140/21
f 45/141/22 49/142/22 47/143/22 43/144/22
f 50/145/23 46/146/23 44/147/23 48/148/23
f 51/149/24 53/150/24 54/151/24 52/152/24
f 53/153/25 57/154/25 58/155/25 54/156/25
f 57/157/26 55/158/26 56/159/26 58/160/26
f 55/161/27 51/162/27 52/163/27 56/164/27
f 53/165/28 51/166/28 55/167/28 57/168/28
f 58/169/29 56/170/29 52/171/29 54/172/29
f 59/173/30 60/174/30 62/175/30 61/176/30
f 61/177/31 62/178/31 66/179/31 65/180/31
f 65/181/32 66/182/32 64/183/32 63/184/32
f 63/185/33 64/186/33 60/187/33 59/188/33
f 61/189/34 65/190/34 63/191/34 59/192/34
f 66/193/35 62/194/35 60/195/35 64/196/35
f 67/197/36 69/198/36 70/199/36 68/200/36
f 69/201/37 73/202/37 74/203/37 70/204/37
f 73/205/38 71/206/38 72/207/38 74/208/38
f 71/209/39 67/210/39 68/211/39 72/212/39
f 69/213/40 67/214/40 71/215/40 73/216/40
f 74/217/41 72/218/41 68/219/41 70/220/41
f 75/221/30 76/222/30 78/223/30 77/224/30
f 77/225/31 78/226/31 82/227/31 81/228/31
f 81/229/32 82/230/32 80/231/32 79/232/32
f 79/233/33 80/234/33 76/235/33 75/236/33
f 77/237/34 81/238/34 79/239/34 75/240/34
f 82/241/42 78/242/42 76/243/42 80/244/42
f 83/245/36 85/246/36 86/247/36 84/248/36
f 85/249/37 89/250/37 90/251/37 86/252/37
f 89/253/38 87/254/38 88/255/38 90/256/38
f 87/257/39 83/258/39 84/259/39 88/260/39
f 85/261/40 83/262/40 87/263/40 89/264/40
f 90/265/41 88/266/41 84/267/41 86/268/41
